# xmcd CD database file
#
# Track frame offsets:
#	150
#	20700
#	40200
#	66982
#	108352
#
# Disc length: 1835 seconds
#
# Revision: 8
# Processed by: cddbd v1.5.2PL0 Copyright (c) Steve Scherf et al.
# Submitted via: CDex 1.70beta3
#
DISCID=40072905
DTITLE=EGO-WRAPPIN' - SWING FOR JOY
DYEAR=1900
DGENRE=Other
TTITLE0=finger
TTITLE1=rendezvous under the moonlight
TTITLE2=a love song    feat. DETERMINATIONS
TTITLE3=官能漂流
TTITLE4=calling me - SNOW DOLPHIN MIX
EXTD=
EXTT0=
EXTT1=
EXTT2=
EXTT3=
EXTT4=
PLAYORDER=
